<svg width="32" height="32" viewBox="0 0 32 32" xmlns="http://www.w3.org/2000/svg">
<path d="M25.703 6.82361C23.8878 5.96474 21.9722 5.35231 20.004 5.00164C19.9861 4.99804 19.9675 5.0004 19.9509 5.0084C19.9344 5.0164 19.9207 5.02961 19.9119 5.04614C19.6669 5.49712 19.3939 6.0852 19.2026 6.54941C17.081 6.21723 14.9229 6.21723 12.8012 6.54941C12.5883 6.03505 12.348 5.5332 12.0814 5.04614C12.0722 5.02998 12.0585 5.01708 12.0421 5.00914C12.0256 5.00119 12.0072 4.99858 11.9893 5.00164C10.021 5.35158 8.10523 5.96404 6.29027 6.82361C6.2749 6.83025 6.26188 6.84158 6.25294 6.85608C2.62238 12.447 1.62724 17.8997 2.11606 23.2838C2.11724 23.2972 2.12106 23.3102 2.12728 23.3219C2.1335 23.3337 2.14199 23.3441 2.15222 23.3524C4.26569 24.9665 6.62989 26.1987 9.14385 26.9963C9.16157 27.0016 9.18044 27.0012 9.19794 26.9952C9.21544 26.9892 9.23075 26.9778 9.24185 26.9626C9.78084 26.205 10.2615 25.4052 10.6721 24.5646C10.6779 24.5531 10.6812 24.5405 10.6819 24.5276C10.6825 24.5147 10.6805 24.5018 10.676 24.4898C10.6715 24.4777 10.6645 24.4668 10.6556 24.4577C10.6467 24.4487 10.636 24.4416 10.6243 24.4371C9.86999 24.1396 9.13973 23.7809 8.44037 23.3644C8.42755 23.3568 8.41677 23.346 8.40897 23.333C8.40117 23.32 8.39661 23.3052 8.39568 23.29C8.39476 23.2748 8.39751 23.2595 8.40367 23.2457C8.40984 23.2318 8.41924 23.2197 8.43104 23.2105C8.57832 23.0969 8.72302 22.9798 8.86503 22.8593C8.87745 22.8489 8.89243 22.8423 8.90829 22.8402C8.92415 22.838 8.94028 22.8405 8.95486 22.8473C13.5374 25.0036 18.4979 25.0036 23.0268 22.8473C23.0415 22.8403 23.0579 22.8377 23.074 22.8398C23.0901 22.8419 23.1052 22.8487 23.1178 22.8593C23.2578 22.9772 23.4048 23.0974 23.5529 23.2105C23.5646 23.2195 23.5739 23.2314 23.5801 23.2451C23.5863 23.2587 23.5892 23.2737 23.5885 23.2887C23.5878 23.3038 23.5836 23.3184 23.5762 23.3314C23.5688 23.3444 23.5584 23.3553 23.5459 23.3632C22.8482 23.7836 22.1172 24.1424 21.3608 24.4359C21.3491 24.4406 21.3384 24.4477 21.3294 24.4569C21.3205 24.4661 21.3136 24.4771 21.3091 24.4893C21.3046 24.5014 21.3026 24.5144 21.3033 24.5274C21.3039 24.5403 21.3073 24.553 21.313 24.5646C21.733 25.404 22.2136 26.2026 22.7421 26.9614C22.753 26.9769 22.7683 26.9885 22.7859 26.9945C22.8035 27.0005 22.8224 27.0007 22.8401 26.9951C25.3583 26.2 27.7263 24.9676 29.8423 23.3512C29.8526 23.3437 29.8612 23.334 29.8676 23.3228C29.8741 23.3116 29.8781 23.2991 29.8796 23.2862C30.4629 17.0603 28.9019 11.6521 25.7392 6.85848C25.7318 6.84232 25.719 6.82949 25.703 6.8224V6.82361ZM11.357 20.0043C9.97683 20.0043 8.84053 18.6994 8.84053 17.0952C8.84053 15.4921 9.95583 14.186 11.357 14.186C12.7686 14.186 13.8955 15.5041 13.8734 17.0964C13.8734 18.6994 12.7581 20.0043 11.357 20.0043ZM20.6609 20.0043C19.2807 20.0043 18.1444 18.6994 18.1444 17.0952C18.1444 15.4921 19.2586 14.186 20.6609 14.186C22.0725 14.186 23.1994 15.5041 23.1773 17.0964C23.1773 18.6994 22.0736 20.0043 20.6609 20.0043Z" />
</svg>
