<svg width="32" height="32" viewBox="0 0 32 32" xmlns="http://www.w3.org/2000/svg">
<path d="M16 3C8.8175 3 3 8.96854 3 16.3301C3 22.2208 6.7245 27.2163 11.8888 28.977C12.5388 29.1025 12.7771 28.6904 12.7771 28.336C12.7771 28.0194 12.7663 27.1807 12.7608 26.0699C9.14467 26.8742 8.382 24.2815 8.382 24.2815C7.7905 22.7429 6.93575 22.3319 6.93575 22.3319C5.75817 21.5055 7.02675 21.5221 7.02675 21.5221C8.33217 21.6154 9.01792 22.8951 9.01792 22.8951C10.1771 24.9335 12.061 24.3448 12.8042 24.0037C12.9212 23.1417 13.2559 22.5541 13.6275 22.2208C10.7404 21.8876 7.706 20.7412 7.706 15.6336C7.706 14.1784 8.20975 12.9898 9.04392 12.0567C8.89767 11.7201 8.45892 10.3649 9.15767 8.52865C9.15767 8.52865 10.2464 8.17096 12.7327 9.89498C13.7727 9.59838 14.8777 9.45175 15.9827 9.44509C17.0877 9.45175 18.1927 9.59838 19.2327 9.89498C21.7027 8.17096 22.7914 8.52865 22.7914 8.52865C23.4902 10.3649 23.0514 11.7201 22.9214 12.0567C23.7502 12.9898 24.2539 14.1784 24.2539 15.6336C24.2539 20.7545 21.2152 21.882 18.3227 22.2097C18.7777 22.6096 19.2002 23.4272 19.2002 24.6758C19.2002 26.4598 19.1839 27.8928 19.1839 28.326C19.1839 28.6759 19.4114 29.0925 20.0777 28.9592C25.2788 27.2107 29 22.212 29 16.3301C29 8.96854 23.1793 3 16 3Z" />
</svg>
