<svg id="Layer_1" data-name="Layer 1" xmlns="http://www.w3.org/2000/svg" viewBox="0 0 1000 169.32"><polygon class="cls-1" points="648.71 65.49 648.71 78.95 648.71 140.9 670.09 140.9 670.09 78.95 691.46 78.95 691.46 57.57 648.71 57.57 648.71 65.49"/><polygon class="cls-1" points="290.43 28.61 264.56 28.61 218.72 80.03 218.72 28.61 196.57 28.61 196.57 140.9 218.72 140.9 218.72 107.14 234.21 90.25 267.35 140.9 293.53 140.9 249.07 73.83 290.43 28.61"/><path class="cls-1" d="M329.7,55.71c-24.63,0-41.82,18.43-41.82,43.21,0,24,15.64,44,42.44,44,22.77,0,34.85-13.78,39.34-26.17h-22c-4.33,7.28-10.84,9.6-17.5,9.6-10.22,0-19.82-7-21.06-21.22h61.49C371.36,75.69,355.41,55.71,329.7,55.71Zm-20.29,34.7c1.7-14.1,12.08-19,20.13-19,9,0,18.9,5,19.36,19Z"/><path class="cls-1" d="M418.77,55.71C394.15,55.71,377,74.14,377,98.92c0,24,15.65,44,42.44,44,22.77,0,34.85-13.78,39.34-26.17h-22c-4.34,7.28-10.84,9.6-17.5,9.6-10.22,0-19.83-7-21.07-21.22h61.49C460.44,75.69,444.49,55.71,418.77,55.71Zm-20.29,34.7c1.71-14.1,12.08-19,20.14-19,9,0,18.89,5,19.36,19Z"/><path class="cls-1" d="M513.32,55.71c-10.53,0-19.52,4.65-24,12.55V57.57H467.94V169.14h21.37V130.37c5.42,9.29,15.18,12.54,23.86,12.54,19.82,0,36.39-17,36.39-43.68C549.56,73.06,533.46,55.71,513.32,55.71Zm-5.27,70.79c-11.77,0-19.51-9.92-19.51-27.27,0-16.72,7.74-27.1,19.51-27.1,11.16,0,19.06,11.15,19.06,27.26C527.11,115.65,519.21,126.5,508.05,126.5Z"/><path class="cls-1" d="M598.15,55.71c-24.62,0-41.82,18.43-41.82,43.21,0,24,15.65,44,42.44,44,22.77,0,34.85-13.78,39.35-26.17h-22c-4.34,7.28-10.84,9.6-17.5,9.6-10.22,0-19.83-7-21.07-21.22H639C639.82,75.69,623.87,55.71,598.15,55.71Zm-20.29,34.7c1.71-14.1,12.09-19,20.14-19,9,0,18.9,5,19.36,19Z"/><path class="cls-1" d="M734.38,28.61h-33.3V140.9h33.3c35.63,0,62.42-11.62,62.42-56.22S770,28.61,734.38,28.61Zm-.93,94.94H723.23V46h10.22c20.29,0,40.43,5.11,40.43,38.73C773.88,118.6,753.74,123.55,733.45,123.55Z"/><path class="cls-1" d="M833,28.61,791.2,140.9h22.62l7.9-22.77h43.67l7.9,22.77h24l-42-112.29ZM828.07,100l15.48-44.3L859,100Z"/><path class="cls-1" d="M945,26.59c-33.45,0-55,23.24-55,58.09s21.53,58.23,55,58.23,55-23.38,55-58.23S978.47,26.59,945,26.59Zm0,98.67c-17.5,0-32.06-14.1-32.06-40.58S927.51,44.25,945,44.25s32.07,14.1,32.07,40.43S962.52,125.26,945,125.26Z"/><rect class="cls-1" y="0.01" width="28.08" height="28.08"/><path class="cls-1" d="M84.22,28.08V0H56.16V28.08H28.08V140.4h84.23V28.08Zm1.94,58.09H54.22V54.23H86.16Z"/><rect class="cls-1" x="112.31" y="0.01" width="28.08" height="28.08"/></svg>