<svg width="32" height="32" viewBox="0 0 32 32"  xmlns="http://www.w3.org/2000/svg">
<path d="M18.0533 16C18.0604 18.3777 17.1138 20.6609 15.4214 22.3484C13.7289 24.0358 11.429 24.9895 9.02669 25C6.62438 24.9895 4.32447 24.0358 2.63202 22.3484C0.939569 20.6609 -0.0070495 18.3777 3.9531e-05 16C-0.0070495 13.6223 0.939569 11.3391 2.63202 9.65161C4.32447 7.96416 6.62438 7.01048 9.02669 7C11.429 7.01048 13.7289 7.96416 15.4214 9.65161C17.1138 11.3391 18.0604 13.6223 18.0533 16ZM27.9467 16C27.9467 20.6716 25.9333 24.4721 23.44 24.4721C20.9467 24.4721 18.92 20.6716 18.92 16C18.92 11.3284 20.9467 7.52786 23.44 7.52786C25.9333 7.52786 27.9467 11.3284 27.9467 16ZM32 16C32 20.1833 31.2933 23.588 30.4133 23.588C29.5333 23.588 28.8267 20.1833 28.8267 16C28.8267 11.8167 29.5333 8.41202 30.4133 8.41202C31.2933 8.41202 32 11.8167 32 16Z" />
</svg>
