<svg width="32" height="32" viewBox="0 0 32 32" xmlns="http://www.w3.org/2000/svg">
<path d="M29.9452 7.62052C28.8969 8.06669 27.7864 8.36121 26.6493 8.49458C27.8465 7.79899 28.7428 6.70815 29.1728 5.42351C28.0633 6.04945 26.8337 6.50509 25.5247 6.75885C24.6611 5.8661 23.5167 5.27398 22.2693 5.07444C21.0218 4.87491 19.7411 5.07912 18.6261 5.65538C17.511 6.23163 16.624 7.14767 16.1027 8.26126C15.5815 9.37485 15.4551 10.6237 15.7433 11.8138C10.9717 11.5961 6.74483 9.37993 3.91333 6.03253C3.39859 6.87819 3.13011 7.84273 3.13633 8.82391C3.13633 10.7525 4.15133 12.4476 5.689 13.4435C4.77767 13.4155 3.88647 13.1773 3.08967 12.7488V12.8164C3.08915 14.0981 3.54731 15.3404 4.38642 16.3327C5.22553 17.325 6.39392 18.0061 7.69333 18.2604C6.85135 18.4786 5.96948 18.5113 5.11267 18.3563C5.48148 19.4593 6.19727 20.4236 7.16018 21.1144C8.12309 21.8053 9.28508 22.1883 10.484 22.2101C8.45345 23.7507 5.94622 24.5868 3.365 24.5842C2.91 24.5842 2.45617 24.5582 2 24.5086C4.63166 26.1376 7.6916 27.0023 10.8165 27C21.3783 27 27.1475 18.5458 27.1475 11.2273C27.1475 10.9905 27.1475 10.7536 27.13 10.5168C28.257 9.73278 29.2291 8.75942 30 7.64307L29.9452 7.62052Z" />
</svg>
