<svg id="borrow" width="107" height="24" viewBox="0 0 107 24" fill="none" xmlns="http://www.w3.org/2000/svg">
<path d="M0.556818 23.5576H9.47727C14.8864 23.5576 17.3295 20.8644 17.3295 17.2963C17.3295 13.694 14.8068 11.6599 12.5 11.5349V11.3076C14.6364 10.7622 16.4205 9.30762 16.4205 6.39853C16.4205 2.95534 14.0341 0.284889 9.07955 0.284889H0.556818V23.5576ZM4.06818 20.5463V13.0917H9.26136C12.0795 13.0917 13.8409 14.9099 13.8409 17.1258C13.8409 19.0803 12.5114 20.5463 9.13636 20.5463H4.06818ZM4.06818 10.3531V3.27353H8.86364C11.6477 3.27353 12.9773 4.73944 12.9773 6.67125C12.9773 8.92125 11.1364 10.3531 8.77273 10.3531H4.06818ZM28.5739 23.9099C33.4943 23.9099 36.7102 20.3076 36.7102 14.9099C36.7102 9.47807 33.4943 5.8758 28.5739 5.8758C23.6534 5.8758 20.4375 9.47807 20.4375 14.9099C20.4375 20.3076 23.6534 23.9099 28.5739 23.9099ZM28.5852 21.0576C25.3693 21.0576 23.8693 18.2508 23.8693 14.8985C23.8693 11.5576 25.3693 8.71671 28.5852 8.71671C31.7784 8.71671 33.2784 11.5576 33.2784 14.8985C33.2784 18.2508 31.7784 21.0576 28.5852 21.0576ZM40.5028 23.5576H43.9006V12.8985C43.9006 10.6144 45.6619 8.96671 48.071 8.96671C48.7756 8.96671 49.571 9.09171 49.8438 9.17125V5.92125C49.5028 5.8758 48.8324 5.84171 48.4006 5.84171C46.3551 5.84171 44.6051 7.0008 43.9688 8.8758H43.7869V6.10307H40.5028V23.5576ZM52.7841 23.5576H56.1818V12.8985C56.1818 10.6144 57.9432 8.96671 60.3523 8.96671C61.0568 8.96671 61.8523 9.09171 62.125 9.17125V5.92125C61.7841 5.8758 61.1136 5.84171 60.6818 5.84171C58.6364 5.84171 56.8864 7.0008 56.25 8.8758H56.0682V6.10307H52.7841V23.5576ZM71.7926 23.9099C76.7131 23.9099 79.929 20.3076 79.929 14.9099C79.929 9.47807 76.7131 5.8758 71.7926 5.8758C66.8722 5.8758 63.6562 9.47807 63.6562 14.9099C63.6562 20.3076 66.8722 23.9099 71.7926 23.9099ZM71.804 21.0576C68.5881 21.0576 67.0881 18.2508 67.0881 14.8985C67.0881 11.5576 68.5881 8.71671 71.804 8.71671C74.9972 8.71671 76.4972 11.5576 76.4972 14.8985C76.4972 18.2508 74.9972 21.0576 71.804 21.0576ZM86.9744 23.5576H90.429L93.9744 10.9553H94.2358L97.7812 23.5576H101.247L106.372 6.10307H102.861L99.4631 18.8644H99.2926L95.8835 6.10307H92.3722L88.9403 18.9213H88.7699L85.3494 6.10307H81.8381L86.9744 23.5576Z" fill="url(#borrowtext)"/>
<defs>
<linearGradient id="borrowtext" x1="-2" y1="-7.44238" x2="110.38" y2="1.43613" gradientUnits="userSpaceOnUse">
<stop stop-color="#6C46D6"/>
<stop offset="0.520833" stop-color="#4F63DF"/>
<stop offset="1" stop-color="#09A7F3"/>
</linearGradient>
</defs>
</svg>
