<svg id="earn" width="65" height="24" viewBox="0 0 65 24" fill="none" xmlns="http://www.w3.org/2000/svg">
<path d="M0.556818 23.5576H15.2841V20.5349H4.06818V13.4099H14.3864V10.3985H4.06818V3.30762H15.1477V0.284889H0.556818V23.5576ZM24.6449 23.944C27.5312 23.944 29.1562 22.4781 29.804 21.1713H29.9403V23.5576H33.2585V11.9667C33.2585 6.88716 29.2585 5.8758 26.4858 5.8758C23.3267 5.8758 20.4176 7.14853 19.2812 10.3303L22.4744 11.0576C22.9744 9.81898 24.2472 8.6258 26.5312 8.6258C28.7244 8.6258 29.8494 9.77353 29.8494 11.7508V11.8303C29.8494 13.069 28.5767 13.0463 25.4403 13.4099C22.1335 13.7963 18.7472 14.6599 18.7472 18.6258C18.7472 22.0576 21.3267 23.944 24.6449 23.944ZM25.3835 21.2167C23.4631 21.2167 22.0767 20.3531 22.0767 18.6713C22.0767 16.8531 23.6903 16.2053 25.6562 15.944C26.7585 15.7963 29.3722 15.5008 29.8608 15.0122V17.2622C29.8608 19.3303 28.2131 21.2167 25.3835 21.2167ZM37.7841 23.5576H41.1818V12.8985C41.1818 10.6144 42.9432 8.96671 45.3523 8.96671C46.0568 8.96671 46.8523 9.09171 47.125 9.17125V5.92125C46.7841 5.8758 46.1136 5.84171 45.6818 5.84171C43.6364 5.84171 41.8864 7.0008 41.25 8.8758H41.0682V6.10307H37.7841V23.5576ZM53.4631 13.194C53.4631 10.4099 55.1676 8.81898 57.5312 8.81898C59.8381 8.81898 61.2358 10.3303 61.2358 12.8644V23.5576H64.6335V12.4553C64.6335 8.13716 62.2585 5.8758 58.6903 5.8758C56.0653 5.8758 54.3494 7.09171 53.5426 8.94398H53.3267V6.10307H50.0653V23.5576H53.4631V13.194Z" fill="url(#earntext)"/>
<defs>
<linearGradient id="earntext" x1="-2" y1="-7.44238" x2="68.759" y2="-3.93575" gradientUnits="userSpaceOnUse">
<stop stop-color="#6C46D6"/>
<stop offset="0.520833" stop-color="#4F63DF"/>
<stop offset="1" stop-color="#09A7F3"/>
</linearGradient>
</defs>
</svg>
