<svg width="136" height="31" viewBox="0 0 136 31" fill="none" xmlns="http://www.w3.org/2000/svg">
<path d="M4.06818 0.727272H0.556818V24H4.06818V0.727272ZM12.3068 13.6364C12.3068 10.8523 14.0114 9.26136 16.375 9.26136C18.6818 9.26136 20.0795 10.7727 20.0795 13.3068V24H23.4773V12.8977C23.4773 8.57955 21.1023 6.31818 17.5341 6.31818C14.9091 6.31818 13.1932 7.53409 12.3864 9.38636H12.1705V6.54545H8.90909V24H12.3068V13.6364ZM36.1818 6.54545H32.6023V2.36364H29.2045V6.54545H26.6477V9.27273H29.2045V19.5795C29.1932 22.75 31.6136 24.2841 34.2955 24.2273C35.375 24.2159 36.1023 24.0114 36.5 23.8636L35.8864 21.0568C35.6591 21.1023 35.2386 21.2045 34.6932 21.2045C33.5909 21.2045 32.6023 20.8409 32.6023 18.875V9.27273H36.1818V6.54545ZM47.2756 24.3523C51.0824 24.3523 53.7756 22.4773 54.5483 19.6364L51.3324 19.0568C50.7188 20.7045 49.2415 21.5455 47.3097 21.5455C44.4006 21.5455 42.446 19.6591 42.3551 16.2955H54.7642V15.0909C54.7642 8.78409 50.9915 6.31818 47.0369 6.31818C42.1733 6.31818 38.9688 10.0227 38.9688 15.3864C38.9688 20.8068 42.1278 24.3523 47.2756 24.3523ZM42.3665 13.75C42.5028 11.2727 44.2983 9.125 47.0597 9.125C49.696 9.125 51.4233 11.0795 51.4347 13.75H42.3665ZM65.8523 30.9091C70.2955 30.9091 73.7273 28.875 73.7273 24.3864V6.54545H70.3977V9.375H70.1477C69.5455 8.29545 68.3409 6.31818 65.0909 6.31818C60.875 6.31818 57.7727 9.64773 57.7727 15.2045C57.7727 20.7727 60.9432 23.7386 65.0682 23.7386C68.2727 23.7386 69.5114 21.9318 70.125 20.8182H70.3409V24.25C70.3409 26.9886 68.4659 28.1705 65.8864 28.1705C63.0568 28.1705 61.9545 26.75 61.3523 25.75L58.4318 26.9545C59.3523 29.0909 61.6818 30.9091 65.8523 30.9091ZM65.8182 20.9205C62.7841 20.9205 61.2045 18.5909 61.2045 15.1591C61.2045 11.8068 62.75 9.20455 65.8182 9.20455C68.7841 9.20455 70.375 11.625 70.375 15.1591C70.375 18.7614 68.75 20.9205 65.8182 20.9205ZM78.2841 24H81.6818V13.3409C81.6818 11.0568 83.4432 9.40909 85.8523 9.40909C86.5568 9.40909 87.3523 9.53409 87.625 9.61364V6.36364C87.2841 6.31818 86.6136 6.28409 86.1818 6.28409C84.1364 6.28409 82.3864 7.44318 81.75 9.31818H81.5682V6.54545H78.2841V24ZM95.4886 24.3864C98.375 24.3864 100 22.9205 100.648 21.6136H100.784V24H104.102V12.4091C104.102 7.32954 100.102 6.31818 97.3295 6.31818C94.1705 6.31818 91.2614 7.59091 90.125 10.7727L93.3182 11.5C93.8182 10.2614 95.0909 9.06818 97.375 9.06818C99.5682 9.06818 100.693 10.2159 100.693 12.1932V12.2727C100.693 13.5114 99.4205 13.4886 96.2841 13.8523C92.9773 14.2386 89.5909 15.1023 89.5909 19.0682C89.5909 22.5 92.1705 24.3864 95.4886 24.3864ZM96.2273 21.6591C94.3068 21.6591 92.9205 20.7955 92.9205 19.1136C92.9205 17.2955 94.5341 16.6477 96.5 16.3864C97.6023 16.2386 100.216 15.9432 100.705 15.4545V17.7045C100.705 19.7727 99.0568 21.6591 96.2273 21.6591ZM116.776 6.54545H113.196V2.36364H109.798V6.54545H107.241V9.27273H109.798V19.5795C109.787 22.75 112.207 24.2841 114.889 24.2273C115.969 24.2159 116.696 24.0114 117.094 23.8636L116.48 21.0568C116.253 21.1023 115.832 21.2045 115.287 21.2045C114.185 21.2045 113.196 20.8409 113.196 18.875V9.27273H116.776V6.54545ZM127.869 24.3523C131.676 24.3523 134.369 22.4773 135.142 19.6364L131.926 19.0568C131.312 20.7045 129.835 21.5455 127.903 21.5455C124.994 21.5455 123.04 19.6591 122.949 16.2955H135.358V15.0909C135.358 8.78409 131.585 6.31818 127.631 6.31818C122.767 6.31818 119.562 10.0227 119.562 15.3864C119.562 20.8068 122.722 24.3523 127.869 24.3523ZM122.96 13.75C123.097 11.2727 124.892 9.125 127.653 9.125C130.29 9.125 132.017 11.0795 132.028 13.75H122.96Z" fill="url(#paint0_linear)"/>
<defs>
<linearGradient id="paint0_linear" x1="-2" y1="-7" x2="139.483" y2="7.12472" gradientUnits="userSpaceOnUse">
<stop stop-color="#6C46D6"/>
<stop offset="0.520833" stop-color="#4F63DF"/>
<stop offset="1" stop-color="#09A7F3"/>
</linearGradient>
</defs>
</svg>
