<svg id="trade" width="86" height="24" viewBox="0 0 86 24" fill="none" xmlns="http://www.w3.org/2000/svg">
<path d="M0.409091 3.30762H7.65909V23.5576H11.1591V3.30762H18.4205V0.284889H0.409091V3.30762ZM20.3153 23.5576H23.7131V12.8985C23.7131 10.6144 25.4744 8.96671 27.8835 8.96671C28.5881 8.96671 29.3835 9.09171 29.6562 9.17125V5.92125C29.3153 5.8758 28.6449 5.84171 28.2131 5.84171C26.1676 5.84171 24.4176 7.0008 23.7812 8.8758H23.5994V6.10307H20.3153V23.5576ZM37.5199 23.944C40.4062 23.944 42.0312 22.4781 42.679 21.1713H42.8153V23.5576H46.1335V11.9667C46.1335 6.88716 42.1335 5.8758 39.3608 5.8758C36.2017 5.8758 33.2926 7.14853 32.1562 10.3303L35.3494 11.0576C35.8494 9.81898 37.1222 8.6258 39.4062 8.6258C41.5994 8.6258 42.7244 9.77353 42.7244 11.7508V11.8303C42.7244 13.069 41.4517 13.0463 38.3153 13.4099C35.0085 13.7963 31.6222 14.6599 31.6222 18.6258C31.6222 22.0576 34.2017 23.944 37.5199 23.944ZM38.2585 21.2167C36.3381 21.2167 34.9517 20.3531 34.9517 18.6713C34.9517 16.8531 36.5653 16.2053 38.5312 15.944C39.6335 15.7963 42.2472 15.5008 42.7358 15.0122V17.2622C42.7358 19.3303 41.0881 21.2167 38.2585 21.2167ZM57.1932 23.8985C60.375 23.8985 61.625 21.9553 62.2386 20.8417H62.5227V23.5576H65.8409V0.284889H62.4432V8.93262H62.2386C61.625 7.85307 60.4659 5.8758 57.2159 5.8758C53 5.8758 49.8977 9.20534 49.8977 14.8644C49.8977 20.5122 52.9545 23.8985 57.1932 23.8985ZM57.9432 21.0008C54.9091 21.0008 53.3295 18.3303 53.3295 14.8303C53.3295 11.3644 54.875 8.76216 57.9432 8.76216C60.9091 8.76216 62.5 11.1826 62.5 14.8303C62.5 18.5008 60.875 21.0008 57.9432 21.0008ZM78.2131 23.9099C82.0199 23.9099 84.7131 22.0349 85.4858 19.194L82.2699 18.6144C81.6562 20.2622 80.179 21.1031 78.2472 21.1031C75.3381 21.1031 73.3835 19.2167 73.2926 15.8531H85.7017V14.6485C85.7017 8.34171 81.929 5.8758 77.9744 5.8758C73.1108 5.8758 69.9062 9.58034 69.9062 14.944C69.9062 20.3644 73.0653 23.9099 78.2131 23.9099ZM73.304 13.3076C73.4403 10.8303 75.2358 8.68262 77.9972 8.68262C80.6335 8.68262 82.3608 10.6372 82.3722 13.3076H73.304Z" fill="url(#tradegrad)"/>
<defs>
<linearGradient id="tradegrad" x1="-1" y1="-7.44238" x2="90.1206" y2="-1.61778" gradientUnits="userSpaceOnUse">
<stop stop-color="#6C46D6"/>
<stop offset="0.520833" stop-color="#4F63DF"/>
<stop offset="1" stop-color="#09A7F3"/>
</linearGradient>
</defs>
</svg>
